<svg width="16" height="17" viewBox="0 0 16 17" fill="none" xmlns="http://www.w3.org/2000/svg">
<path d="M15.3845 8.30063C15.3845 12.379 12.0783 15.6852 7.99985 15.6852C3.92144 15.6852 0.615234 12.379 0.615234 8.30063C0.615234 4.22222 3.92144 0.916016 7.99985 0.916016C12.0783 0.916016 15.3845 4.22222 15.3845 8.30063Z" fill="white"/>
<path fill-rule="evenodd" clip-rule="evenodd" d="M3.7832 8.12695C3.7832 7.78177 4.07399 7.50195 4.43269 7.50195H11.8554C12.2141 7.50195 12.5049 7.78177 12.5049 8.12695C12.5049 8.47213 12.2141 8.75195 11.8554 8.75195H4.43269C4.07399 8.75195 3.7832 8.47213 3.7832 8.12695Z" fill="#8c1515"/>
<path fill-rule="evenodd" clip-rule="evenodd" d="M8.14453 12.4863C7.79935 12.4863 7.51953 12.1955 7.51953 11.8368L7.51953 4.41416C7.51953 4.05546 7.79935 3.76468 8.14453 3.76468C8.48971 3.76468 8.76953 4.05546 8.76953 4.41416L8.76953 11.8368C8.76953 12.1955 8.48971 12.4863 8.14453 12.4863Z" fill="#8c1515"/>
<path fill-rule="evenodd" clip-rule="evenodd" d="M8 1.53155C4.26146 1.53155 1.23077 4.56224 1.23077 8.30078C1.23077 12.0393 4.26146 15.07 8 15.07C11.7385 15.07 14.7692 12.0393 14.7692 8.30078C14.7692 4.56224 11.7385 1.53155 8 1.53155ZM0 8.30078C0 3.8825 3.58172 0.300781 8 0.300781C12.4183 0.300781 16 3.8825 16 8.30078C16 12.7191 12.4183 16.3008 8 16.3008C3.58172 16.3008 0 12.7191 0 8.30078Z" fill="#8c1515"/>
</svg>
