<svg width="26" height="26" viewBox="0 0 26 26" fill="none" xmlns="http://www.w3.org/2000/svg">
<path fill-rule="evenodd" clip-rule="evenodd" d="M0.649484 0C0.290784 0 0 0.279822 0 0.624999V12.1973C0 12.2031 8.52163e-05 12.2089 0.000254995 12.2148C-0.00465882 12.3834 0.0615454 12.5505 0.190249 12.6744L1.94113 14.3592L7.49222 19.8123C7.61439 19.9324 7.78161 20 7.95618 20H8.05195C8.06551 20.0004 8.0791 20.0004 8.0927 20H17.3505C17.7092 20 18 19.7202 18 19.375V0.624999C18 0.279822 17.7092 0 17.3505 0H0.649484ZM8.72167 18.75H16.701V1.25H1.29897V11.6074H8.07218C8.43088 11.6074 8.72167 11.8872 8.72167 12.2324V18.75ZM2.86435 13.4799L2.2307 12.8574H7.4227V17.8664L2.86435 13.4799ZM3.43269 4.46484C3.07399 4.46484 2.7832 4.74467 2.7832 5.08984C2.7832 5.43502 3.07399 5.71484 3.43269 5.71484H14.5667C14.9254 5.71484 15.2162 5.43502 15.2162 5.08984C15.2162 4.74467 14.9254 4.46484 14.5667 4.46484H3.43269ZM2.7832 8.66016C2.7832 8.31498 3.07399 8.03516 3.43269 8.03516H10.8554C11.2141 8.03516 11.5049 8.31498 11.5049 8.66016C11.5049 9.00533 11.2141 9.28516 10.8554 9.28516H3.43269C3.07399 9.28516 2.7832 9.00533 2.7832 8.66016Z" fill="#2E2D29"/>
<path d="M25.3845 17.3006C25.3845 21.379 22.0783 24.6852 17.9999 24.6852C13.9214 24.6852 10.6152 21.379 10.6152 17.3006C10.6152 13.2222 13.9214 9.91602 17.9999 9.91602C22.0783 9.91602 25.3845 13.2222 25.3845 17.3006Z" fill="white"/>
<path fill-rule="evenodd" clip-rule="evenodd" d="M13.7832 17.127C13.7832 16.7818 14.074 16.502 14.4327 16.502H21.8554C22.2141 16.502 22.5049 16.7818 22.5049 17.127C22.5049 17.4721 22.2141 17.752 21.8554 17.752H14.4327C14.074 17.752 13.7832 17.4721 13.7832 17.127Z" fill="#2E2D29"/>
<path fill-rule="evenodd" clip-rule="evenodd" d="M18.1445 21.4863C17.7994 21.4863 17.5195 21.1955 17.5195 20.8368L17.5195 13.4142C17.5195 13.0555 17.7994 12.7647 18.1445 12.7647C18.4897 12.7647 18.7695 13.0555 18.7695 13.4142L18.7695 20.8368C18.7695 21.1955 18.4897 21.4863 18.1445 21.4863Z" fill="#2E2D29"/>
<path fill-rule="evenodd" clip-rule="evenodd" d="M18 10.5316C14.2615 10.5316 11.2308 13.5622 11.2308 17.3008C11.2308 21.0393 14.2615 24.07 18 24.07C21.7385 24.07 24.7692 21.0393 24.7692 17.3008C24.7692 13.5622 21.7385 10.5316 18 10.5316ZM10 17.3008C10 12.8825 13.5817 9.30078 18 9.30078C22.4183 9.30078 26 12.8825 26 17.3008C26 21.7191 22.4183 25.3008 18 25.3008C13.5817 25.3008 10 21.7191 10 17.3008Z" fill="#2E2D29"/>
</svg>