<svg width="14" height="14" viewBox="0 0 14 14" fill="none" xmlns="http://www.w3.org/2000/svg">
<path fill-rule="evenodd" clip-rule="evenodd" d="M4.4 0C4.75898 0 5.05 0.28491 5.05 0.636364V1.27273H8.95V0.636364C8.95 0.28491 9.24101 0 9.6 0C9.95899 0 10.25 0.28491 10.25 0.636364V1.27273H11.55C12.627 1.27273 13.5 2.12746 13.5 3.18182V12.0909C13.5 13.1453 12.627 14 11.55 14H2.45C1.37304 14 0.5 13.1453 0.5 12.0909V3.18182C0.5 2.12746 1.37304 1.27273 2.45 1.27273H3.75V0.636364C3.75 0.28491 4.04101 0 4.4 0ZM3.75 2.54545H2.45C2.09101 2.54545 1.8 2.83036 1.8 3.18182V5.09091H12.2V3.18182C12.2 2.83036 11.909 2.54545 11.55 2.54545H10.25V3.18182C10.25 3.53327 9.95899 3.81818 9.6 3.81818C9.24101 3.81818 8.95 3.53327 8.95 3.18182V2.54545H5.05V3.18182C5.05 3.53327 4.75898 3.81818 4.4 3.81818C4.04101 3.81818 3.75 3.53327 3.75 3.18182V2.54545ZM12.2 6.36364H1.8V12.0909C1.8 12.4424 2.09101 12.7273 2.45 12.7273H11.55C11.909 12.7273 12.2 12.4424 12.2 12.0909V6.36364Z" fill="currentColor"/>
</svg>
