<svg width="24" height="24" viewBox="0 0 24 24" fill="none" xmlns="http://www.w3.org/2000/svg">
<path d="M12 7.5C9.51562 7.5 7.5 9.51562 7.5 12C7.5 14.4844 9.51562 16.5 12 16.5C14.4844 16.5 16.5 14.4844 16.5 12C16.5 9.51562 14.4844 7.5 12 7.5ZM12 15C10.3453 15 9 13.6547 9 12C9 10.3453 10.3453 9 12 9C13.6547 9 15 10.3453 15 12C15 13.6547 13.6547 15 12 15Z" fill="black"/>
<path d="M22.8469 9.15L21.8438 9C21.6516 8.3625 21.3984 7.74844 21.0844 7.1625L21.6891 6.34219C22.0875 5.80313 22.0312 5.05312 21.5578 4.57969L19.4203 2.44219C18.9469 1.96875 18.1969 1.9125 17.6578 2.31094L16.8375 2.91563C16.2516 2.60625 15.6375 2.35312 15 2.15625L14.85 1.14844C14.7516 0.4875 14.1797 0 13.5094 0H10.4859C9.81562 0 9.24844 0.4875 9.15 1.15313L9 2.15625C8.3625 2.34844 7.74844 2.60156 7.1625 2.91563L6.34219 2.31094C5.80313 1.9125 5.05312 1.96875 4.57969 2.44219L2.44688 4.58438C1.97344 5.05781 1.91719 5.80781 2.31563 6.34687L2.92031 7.16719C2.60625 7.74844 2.35312 8.3625 2.15625 9L1.14844 9.15C0.492188 9.24844 0 9.82031 0 10.4906V13.5141C0 14.1844 0.4875 14.7516 1.15313 14.85L2.15625 15C2.34844 15.6375 2.60156 16.2516 2.91563 16.8375L2.31094 17.6578C1.9125 18.1969 1.96875 18.9469 2.44219 19.4203L4.57969 21.5578C5.05312 22.0312 5.80313 22.0875 6.34219 21.6891L7.1625 21.0844C7.74844 21.3984 8.3625 21.6516 9 21.8438L9.15 22.8516C9.24844 23.5125 9.82031 24.0047 10.4859 24.0047H13.5094C14.1797 24.0047 14.7469 23.5125 14.8453 22.8516L15 21.8438C15.6375 21.6516 16.2516 21.3984 16.8375 21.0844L17.6578 21.6891C18.1969 22.0875 18.9469 22.0312 19.4203 21.5578L21.5578 19.4203C22.0312 18.9469 22.0875 18.1969 21.6891 17.6578L21.0844 16.8375C21.3984 16.2516 21.6516 15.6375 21.8438 15L22.8516 14.85C23.5125 14.7516 24.0047 14.1797 24.0047 13.5141V10.4906C24 9.82031 23.5125 9.24844 22.8469 9.15ZM22.2844 13.2L20.4422 13.4766C20.2219 14.7422 19.725 15.9141 19.0125 16.9266L20.1188 18.4266L18.4219 20.1234L16.9219 19.0172C15.9094 19.7297 14.7375 20.2266 13.4719 20.4469L13.1953 22.2891H10.7953L10.5187 20.4469C9.25312 20.2266 8.08125 19.7297 7.06875 19.0172L5.56875 20.1234L3.87187 18.4266L4.97812 16.9266C4.26562 15.9141 3.76875 14.7422 3.54844 13.4766L1.70625 13.2V10.8L3.54844 10.5234C3.76875 9.25781 4.26562 8.08594 4.97812 7.07344L3.87187 5.57344L5.56875 3.87656L7.06875 4.98281C8.08125 4.27031 9.25312 3.77344 10.5187 3.55313L10.7953 1.71094H13.1953L13.4719 3.55313C14.7375 3.77344 15.9094 4.27031 16.9219 4.98281L18.4219 3.87656L20.1188 5.57344L19.0125 7.07344C19.725 8.08594 20.2219 9.25781 20.4422 10.5234L22.2844 10.8V13.2Z" fill="black"/>
</svg>
