<svg width="16" height="18" viewBox="0 0 16 18" fill="none" xmlns="http://www.w3.org/2000/svg">
<path fill-rule="evenodd" clip-rule="evenodd" d="M6.5 2.18214C6.30109 2.18214 6.11032 2.26196 5.96967 2.40403C5.82902 2.54611 5.75 2.7388 5.75 2.93972V3.6973H10.25V2.93972C10.25 2.7388 10.171 2.54611 10.0303 2.40403C9.88968 2.26196 9.69891 2.18214 9.5 2.18214H6.5ZM11.75 3.6973V2.93972C11.75 2.33695 11.5129 1.75888 11.091 1.33266C10.669 0.90644 10.0967 0.666992 9.5 0.666992H6.5C5.90326 0.666992 5.33097 0.90644 4.90901 1.33266C4.48705 1.75888 4.25 2.33695 4.25 2.93972V3.6973H0.5V5.21245H2V15.0609C2 15.6637 2.23705 16.2418 2.65901 16.668C3.08097 17.0942 3.65326 17.3337 4.25 17.3337H11.75C12.3467 17.3337 12.919 17.0942 13.341 16.668C13.7629 16.2418 14 15.6637 14 15.0609V5.21245H15.5V3.6973H11.75ZM3.5 5.21245V15.0609C3.5 15.2619 3.57902 15.4545 3.71967 15.5966C3.86032 15.7387 4.05109 15.8185 4.25 15.8185H11.75C11.9489 15.8185 12.1397 15.7387 12.2803 15.5966C12.421 15.4545 12.5 15.2619 12.5 15.0609V5.21245H3.5ZM7.25 7.48517V13.5458H5.75V7.48517H7.25ZM10.25 7.48517V13.5458H8.75V7.48517H10.25Z" fill="#585754"/>
</svg>
