<svg width="24" height="24" viewBox="0 0 24 24" fill="none" xmlns="http://www.w3.org/2000/svg">
<path d="M21.3037 2.94496C20.7661 2.32835 20.1279 1.83921 19.4253 1.5055C18.7228 1.17177 17.9699 1 17.2095 1C16.4491 1 15.6962 1.17177 14.9937 1.5055C14.2911 1.83921 13.6529 2.32835 13.1154 2.94496L11.9998 4.22404L10.8841 2.94496C9.79829 1.70003 8.32558 1.00064 6.78999 1.00064C5.25438 1.00064 3.78168 1.70003 2.69585 2.94496C1.61001 4.18988 1 5.87836 1 7.63894C1 9.39954 1.61001 11.088 2.69585 12.333L3.81147 13.612L11.9998 23L20.188 13.612L21.3037 12.333C21.8414 11.7166 22.2681 10.9848 22.5592 10.1794C22.8503 9.37403 23 8.51076 23 7.63894C23 6.76714 22.8503 5.90387 22.5592 5.09846C22.2681 4.29304 21.8414 3.56128 21.3037 2.94496Z" stroke="#2E2D29" stroke-width="1.6" stroke-linecap="round" stroke-linejoin="round"/>
</svg>
