<svg width="20" height="20" viewBox="0 0 20 20" fill="none" xmlns="http://www.w3.org/2000/svg">
<rect width="20" height="20" rx="10" fill="#FFE6E2"/>
<path d="M13 8V6.91667C13 6.14312 12.6839 5.40125 12.1213 4.85427C11.5587 4.30729 10.7956 4 10 4C9.20435 4 8.44129 4.30729 7.87868 4.85427C7.31607 5.40125 7 6.14312 7 6.91667V8" stroke="#8C1515" stroke-width="1.2" stroke-linecap="round"/>
<path d="M13.8889 8H6.11111C5.49746 8 5 8.55103 5 9.23077V14.7692C5 15.449 5.49746 16 6.11111 16H13.8889C14.5025 16 15 15.449 15 14.7692V9.23077C15 8.55103 14.5025 8 13.8889 8Z" fill="#8C1515"/>
<circle cx="10" cy="13" r="1" fill="white"/>
</svg>
