<svg width="14" height="14" viewBox="0 0 16 16" fill="none" xmlns="http://www.w3.org/2000/svg">
<path d="M15.6944 14.2297L12.6432 11.1781C13.5029 10.0148 14.0255 8.58166 14.0255 7.0137C14.0255 3.13593 10.8732 0 7.01276 0C3.13551 0 0 3.15279 0 7.0137C0 10.8915 3.15237 14.0274 7.01276 14.0274C8.56366 14.0274 10.0134 13.5047 11.1766 12.6449L14.2278 15.6965C14.4301 15.8988 14.6998 16 14.9695 16C15.2393 16 15.509 15.8988 15.7113 15.6965C16.099 15.3087 16.099 14.6344 15.6944 14.2297ZM2.07348 7.0137C2.07348 4.29926 4.28183 2.09062 6.9959 2.09062C9.70998 2.09062 11.9183 4.29926 11.9183 7.0137C11.9183 9.72813 9.70998 11.9368 6.9959 11.9368C4.28183 11.9536 2.07348 9.74499 2.07348 7.0137Z" fill="#585754"/>
</svg>
