<svg width="20" height="20" viewBox="0 0 20 20" fill="none" xmlns="http://www.w3.org/2000/svg">
<path d="M17.7331 4.34723L13.4353 0L12.1448 1.30532L14.8841 4.07618L4 4.07639V5.92381L14.8841 5.9236L12.1448 8.69446L13.4353 10L17.7331 5.65277C17.904 5.47946 18 5.24472 18 4.99989C18 4.75527 17.904 4.52053 17.7331 4.34723Z" fill="#8C1515"/>
<path d="M16 14.0764H5.11593L7.85518 11.3055L6.56475 10L2.26688 14.3472C2.09597 14.5205 2 14.7553 2 15.0001C2 15.2447 2.09596 15.4795 2.26688 15.6528L6.56475 20L7.85518 18.6947L5.11593 15.9238L16 15.9236V14.0764Z" fill="#8C1515"/>
</svg>
