<svg width="11" height="13" viewBox="0 0 11 13" fill="none" xmlns="http://www.w3.org/2000/svg">
<path d="M5.39825 4.5996H6.05H9.9C10.0198 4.5996 10.1632 4.65797 10.2883 4.81337C10.4157 4.97164 10.5 5.20542 10.5 5.46613V6.78916L10.4668 6.9785L8.45067 12.4821H3.25V3.88051L5.73909 0.517424C5.77775 0.529122 5.81709 0.547026 5.85647 0.572074C5.93712 0.623382 6.01741 0.704765 6.08335 0.818431C6.14931 0.932125 6.19601 1.07004 6.2146 1.22128C6.23317 1.37242 6.22235 1.52641 6.18416 1.66885C6.18416 1.66886 6.18416 1.66887 6.18416 1.66888L5.56706 3.97009L5.39825 4.5996ZM1.15 4.5996V12.4821H1.1C0.980216 12.4821 0.836762 12.4237 0.711674 12.2683C0.584272 12.11 0.5 11.8762 0.5 11.6155V5.46613C0.5 5.20541 0.584272 4.97164 0.711673 4.81337C0.836761 4.65797 0.980215 4.5996 1.1 4.5996H1.15Z" stroke="#43423E"/>
</svg>