<svg width="28" height="22" viewBox="0 0 28 22" fill="none" xmlns="http://www.w3.org/2000/svg">
<path d="M6.35 1.04545C6.35 0.468066 5.8799 0 5.3 0C4.7201 0 4.25 0.468066 4.25 1.04545V2.09091H3.15C1.4103 2.09091 0 3.49511 0 5.22727V18.8636C0 20.5958 1.4103 22 3.15 22H18.85C19.1484 22 19.4371 21.9587 19.7106 21.8815C18.275 21.6142 16.9934 20.9087 16.0099 19.9091H3.15C2.5701 19.9091 2.1 19.441 2.1 18.8636V10.4545H15.6764C16.4899 9.50263 17.5543 8.77154 18.7672 8.36364H2.1V5.22727C2.1 4.64988 2.5701 4.18182 3.15 4.18182H4.25V5.22727C4.25 5.80466 4.7201 6.27273 5.3 6.27273C5.8799 6.27273 6.35 5.80466 6.35 5.22727V4.18182H15.65V5.22727C15.65 5.80466 16.1201 6.27273 16.7 6.27273C17.2799 6.27273 17.75 5.80466 17.75 5.22727V4.18182H18.85C19.4299 4.18182 19.9 4.64988 19.9 5.22727V8.08593C20.2584 8.02937 20.6257 8 21 8C21.3395 8 21.6734 8.02417 22 8.07089V5.22727C22 3.49511 20.5897 2.09091 18.85 2.09091H17.75V1.04545C17.75 0.468066 17.2799 0 16.7 0C16.1201 0 15.65 0.468066 15.65 1.04545V2.09091H6.35V1.04545Z" fill="#585754"/>
<path fill-rule="evenodd" clip-rule="evenodd" d="M21 20C23.7614 20 26 17.7614 26 15C26 12.2386 23.7614 10 21 10C18.2386 10 16 12.2386 16 15C16 17.7614 18.2386 20 21 20ZM21 22C24.866 22 28 18.866 28 15C28 11.134 24.866 8 21 8C17.134 8 14 11.134 14 15C14 18.866 17.134 22 21 22Z" fill="#585754"/>
<path fill-rule="evenodd" clip-rule="evenodd" d="M18 14H24V16H18V14Z" fill="#585754"/>
</svg>
