<svg width="12" height="12" viewBox="0 0 12 12" fill="none" xmlns="http://www.w3.org/2000/svg">
<path d="M10.5668 2.04891C10.3029 1.77984 9.98961 1.5664 9.64476 1.42077C9.2999 1.27515 8.93027 1.2002 8.55699 1.2002C8.1837 1.2002 7.81407 1.27515 7.46921 1.42077C7.12436 1.5664 6.81103 1.77984 6.54714 2.04891L5.99947 2.60705L5.4518 2.04891C4.91876 1.50567 4.1958 1.20048 3.44196 1.20048C2.68812 1.20048 1.96516 1.50567 1.43211 2.04891C0.89907 2.59214 0.599609 3.32893 0.599609 4.09719C0.599609 4.86545 0.89907 5.60224 1.43211 6.14548L1.97978 6.70362L5.99947 10.8002L10.0192 6.70362L10.5668 6.14548C10.8308 5.87654 11.0403 5.55722 11.1832 5.20577C11.3261 4.85432 11.3996 4.47762 11.3996 4.09719C11.3996 3.71676 11.3261 3.34006 11.1832 2.98861C11.0403 2.63716 10.8308 2.31784 10.5668 2.04891Z" stroke="#2E2D29" stroke-linecap="round" stroke-linejoin="round"/>
</svg>
