<svg width="12" height="12" viewBox="0 0 12 12" fill="none" xmlns="http://www.w3.org/2000/svg">
<path fill-rule="evenodd" clip-rule="evenodd" d="M3.42 0C3.7348 0 3.99 0.244208 3.99 0.545455V1.09091H7.41V0.545455C7.41 0.244208 7.6652 0 7.98 0C8.2948 0 8.55 0.244208 8.55 0.545455V1.09091H9.69C10.6344 1.09091 11.4 1.82353 11.4 2.72727V10.3636C11.4 11.2674 10.6344 12 9.69 12H1.71C0.765593 12 0 11.2674 0 10.3636V2.72727C0 1.82353 0.765593 1.09091 1.71 1.09091H2.85V0.545455C2.85 0.244208 3.1052 0 3.42 0ZM2.85 2.18182H1.71C1.3952 2.18182 1.14 2.42603 1.14 2.72727V4.36364H10.26V2.72727C10.26 2.42603 10.0048 2.18182 9.69 2.18182H8.55V2.72727C8.55 3.02852 8.2948 3.27273 7.98 3.27273C7.6652 3.27273 7.41 3.02852 7.41 2.72727V2.18182H3.99V2.72727C3.99 3.02852 3.7348 3.27273 3.42 3.27273C3.1052 3.27273 2.85 3.02852 2.85 2.72727V2.18182ZM10.26 5.45455H1.14V10.3636C1.14 10.6649 1.3952 10.9091 1.71 10.9091H9.69C10.0048 10.9091 10.26 10.6649 10.26 10.3636V5.45455Z" fill="white"/>
</svg>
