<svg width="8" height="8" viewBox="0 0 8 8" fill="none" xmlns="http://www.w3.org/2000/svg">
<path d="M4 0C2.77467 0 1.77778 0.944421 1.77778 2.10526C1.77778 3.26611 2.77467 4.21053 4 4.21053C5.22533 4.21053 6.22222 3.26611 6.22222 2.10526C6.22222 0.944421 5.22533 0 4 0ZM4 3.36842C3.26489 3.36842 2.66667 2.80168 2.66667 2.10526C2.66667 1.40884 3.26489 0.842105 4 0.842105C4.73511 0.842105 5.33333 1.40884 5.33333 2.10526C5.33333 2.80168 4.73511 3.36842 4 3.36842ZM8 8V7.57895C8 5.95411 6.604 4.63158 4.88889 4.63158H3.11111C1.39556 4.63158 0 5.95411 0 7.57895V8H0.888889V7.57895C0.888889 6.41811 1.88578 5.47368 3.11111 5.47368H4.88889C6.11422 5.47368 7.11111 6.41811 7.11111 7.57895V8H8Z" fill="#585754"/>
</svg>
