
<svg width="12" height="12" viewBox="0 0 12 12" fill="none" xmlns="http://www.w3.org/2000/svg">
<path d="M10.6398 2.60834L8.06106 0L7.28679 0.783194L8.93035 2.44571L2.3999 2.44584V3.55429L8.93035 3.55416L7.28679 5.21667L8.06106 6L10.6398 3.39166C10.7423 3.28768 10.7999 3.14683 10.7999 2.99993C10.7999 2.85316 10.7423 2.71232 10.6398 2.60834Z" fill="#585754"/>
<path d="M9.6002 8.44584H3.06975L4.7133 6.78333L3.93904 6L1.36032 8.60834C1.25778 8.71232 1.2002 8.85317 1.2002 9.00007C1.2002 9.14684 1.25777 9.28768 1.36032 9.39166L3.93904 12L4.7133 11.2168L3.06975 9.55429L9.6002 9.55416V8.44584Z" fill="#585754"/>
</svg>