<svg width="12" height="12" viewBox="0 0 12 12" fill="none" xmlns="http://www.w3.org/2000/svg">
<path fill-rule="evenodd" clip-rule="evenodd" d="M5.1 1.90909C4.98065 1.90909 4.86619 1.95698 4.7818 2.04222C4.69741 2.12747 4.65 2.24308 4.65 2.36364V2.81818H7.35V2.36364C7.35 2.24308 7.30259 2.12747 7.2182 2.04222C7.13381 1.95698 7.01935 1.90909 6.9 1.90909H5.1ZM8.25 2.81818V2.36364C8.25 2.00198 8.10777 1.65513 7.85459 1.3994C7.60142 1.14367 7.25804 1 6.9 1H5.1C4.74196 1 4.39858 1.14367 4.14541 1.3994C3.89223 1.65513 3.75 2.00198 3.75 2.36364V2.81818H1.5V3.72727H2.4V9.63636C2.4 9.99802 2.54223 10.3449 2.79541 10.6006C3.04858 10.8563 3.39196 11 3.75 11H8.25C8.60804 11 8.95142 10.8563 9.20459 10.6006C9.45777 10.3449 9.6 9.99802 9.6 9.63636V3.72727H10.5V2.81818H8.25ZM3.3 3.72727V9.63636C3.3 9.75692 3.34741 9.87253 3.4318 9.95778C3.51619 10.043 3.63065 10.0909 3.75 10.0909H8.25C8.36935 10.0909 8.48381 10.043 8.5682 9.95778C8.65259 9.87253 8.7 9.75692 8.7 9.63636V3.72727H3.3ZM5.55 5.09091V8.72727H4.65V5.09091H5.55ZM7.35 5.09091V8.72727H6.45V5.09091H7.35Z" fill="#585754"/>
</svg>
