<svg width="8" height="8" viewBox="0 0 8 8" fill="none" xmlns="http://www.w3.org/2000/svg">
<path fill-rule="evenodd" clip-rule="evenodd" d="M2.07229 0C1.85935 0 1.68675 0.172627 1.68675 0.385542V0.60241H1.13855C0.510619 0.60241 0 1.11303 0 1.74096V6.86145C0 7.48938 0.510619 8 1.13855 8H6.86145C7.48938 8 8 7.48938 8 6.86145V1.74096C8 1.11303 7.48938 0.60241 6.86145 0.60241H6.31325V0.385542C6.31325 0.172627 6.14065 0 5.92771 0C5.71477 0 5.54217 0.172627 5.54217 0.385542V0.60241H2.45783V0.385542C2.45783 0.172627 2.28523 0 2.07229 0ZM0.771084 1.74096C0.771084 1.53846 0.936053 1.37349 1.13855 1.37349H1.68675V1.46988C1.68675 1.68279 1.85935 1.85542 2.07229 1.85542C2.28523 1.85542 2.45783 1.68279 2.45783 1.46988V1.37349H5.54217V1.46988C5.54217 1.68279 5.71477 1.85542 5.92771 1.85542C6.14065 1.85542 6.31325 1.68279 6.31325 1.46988V1.37349H6.86145C7.06395 1.37349 7.22892 1.53846 7.22892 1.74096V2.72892H0.771084V1.74096ZM0.771084 6.86145V3.5H7.22892V6.86145C7.22892 7.06395 7.06395 7.22892 6.86145 7.22892H1.13855C0.936053 7.22892 0.771084 7.06395 0.771084 6.86145Z" fill="#585754"/>
</svg>
